<svg xmlns="http://www.w3.org/2000/svg" xmlns:xlink="http://www.w3.org/1999/xlink" width="500" zoomAndPan="magnify" viewBox="0 0 375 374.999991" height="500" preserveAspectRatio="xMidYMid meet" version="1.0"><defs><g/><clipPath id="673e39c523"><path d="M 0 135.113281 L 374.25 135.113281 L 374.25 246.863281 L 0 246.863281 Z M 0 135.113281 " clip-rule="nonzero"/></clipPath><clipPath id="94d5fa91d7"><path d="M 10.976562 145.628906 L 203.183594 145.628906 L 203.183594 236.515625 L 10.976562 236.515625 Z M 10.976562 145.628906 " clip-rule="nonzero"/></clipPath></defs><g clip-path="url(#673e39c523)"><path stroke-linecap="butt" transform="matrix(0.749648, 0, 0, 0.7489, 0.000794593, 135.113384)" fill="none" stroke-linejoin="miter" d="M -0.00105995 -0.000137104 L 499.233365 -0.000137104 L 499.233365 149.218625 L -0.00105995 149.218625 L -0.00105995 -0.000137104 " stroke="#130f49" stroke-width="6" stroke-opacity="1" stroke-miterlimit="4"/></g><g clip-path="url(#94d5fa91d7)"><path fill="#130f49" d="M 10.976562 145.628906 L 204.277344 145.628906 L 204.277344 237.445312 L 10.976562 237.445312 Z M 10.976562 145.628906 " fill-opacity="1" fill-rule="nonzero"/></g><g fill="#ffffff" fill-opacity="1"><g transform="translate(18.464663, 202.136402)"><g><path d="M 3.339844 0 L 6.21875 0 L 6.21875 -7.53125 L 11.097656 -7.53125 C 16.269531 -7.53125 19.609375 -10.507812 19.609375 -15.222656 C 19.609375 -19.90625 16.269531 -22.917969 11.097656 -22.917969 L 3.339844 -22.917969 Z M 6.21875 -10.214844 L 6.21875 -20.167969 L 11.03125 -20.167969 C 14.730469 -20.167969 16.664062 -18.464844 16.664062 -15.191406 C 16.664062 -11.917969 14.730469 -10.214844 11.03125 -10.214844 Z M 6.21875 -10.214844 "/></g></g></g><g fill="#ffffff" fill-opacity="1"><g transform="translate(41.873138, 202.136402)"><g><path d="M 0.554688 0 L 3.632812 0 L 5.730469 -5.207031 L 16.894531 -5.207031 L 19.054688 0 L 22.097656 0 L 12.667969 -22.917969 L 9.984375 -22.917969 Z M 6.84375 -7.890625 L 11.328125 -18.890625 L 15.8125 -7.890625 Z M 6.84375 -7.890625 "/></g></g></g><g fill="#ffffff" fill-opacity="1"><g transform="translate(67.016718, 202.136402)"><g><path d="M 8.871094 0 L 11.753906 0 L 11.753906 -20.167969 L 19.480469 -20.167969 L 19.480469 -22.917969 L 1.113281 -22.917969 L 1.113281 -20.167969 L 8.871094 -20.167969 Z M 8.871094 0 "/></g></g></g><g fill="#ffffff" fill-opacity="1"><g transform="translate(90.130544, 202.136402)"><g><path d="M 3.339844 0 L 6.21875 0 L 6.21875 -8.21875 L 11.261719 -8.21875 L 16.859375 0 L 20.332031 0 L 14.570312 -8.511719 C 17.90625 -9.332031 19.96875 -11.851562 19.96875 -15.550781 C 19.96875 -20.101562 16.828125 -22.917969 12.082031 -22.917969 L 3.339844 -22.917969 Z M 6.21875 -10.96875 L 6.21875 -20.167969 L 11.753906 -20.167969 C 15.09375 -20.167969 17.023438 -18.464844 17.023438 -15.550781 C 17.023438 -12.636719 15.09375 -10.96875 11.753906 -10.96875 Z M 6.21875 -10.96875 "/></g></g></g><g fill="#ffffff" fill-opacity="1"><g transform="translate(114.914006, 202.136402)"><g><path d="M 3.339844 0 L 6.21875 0 L 6.21875 -22.917969 L 3.339844 -22.917969 Z M 3.339844 0 "/></g></g></g><g fill="#ffffff" fill-opacity="1"><g transform="translate(126.962441, 202.136402)"><g><path d="M 13.488281 0.425781 C 19.054688 0.425781 23.570312 -2.945312 24.945312 -8.054688 L 21.902344 -8.054688 C 20.722656 -4.617188 17.484375 -2.457031 13.585938 -2.457031 C 8.480469 -2.457031 4.84375 -6.15625 4.84375 -11.457031 C 4.84375 -16.761719 8.480469 -20.460938 13.585938 -20.460938 C 17.382812 -20.460938 20.496094 -18.433594 21.671875 -15.125 L 24.75 -15.125 C 23.246094 -20.167969 18.890625 -23.34375 13.488281 -23.34375 C 6.746094 -23.34375 1.898438 -18.367188 1.898438 -11.457031 C 1.898438 -4.550781 6.746094 0.425781 13.488281 0.425781 Z M 13.488281 0.425781 "/></g></g></g><g fill="#ffffff" fill-opacity="1"><g transform="translate(156.165515, 202.136402)"><g><path d="M 3.339844 0 L 6.21875 0 L 6.21875 -22.917969 L 3.339844 -22.917969 Z M 3.339844 0 "/></g></g></g><g fill="#ffffff" fill-opacity="1"><g transform="translate(168.21395, 202.136402)"><g><path d="M 13.75 0.425781 C 20.722656 0.425781 25.632812 -4.484375 25.632812 -11.457031 C 25.632812 -18.433594 20.722656 -23.34375 13.75 -23.34375 C 6.777344 -23.34375 1.898438 -18.433594 1.898438 -11.457031 C 1.898438 -4.484375 6.777344 0.425781 13.75 0.425781 Z M 4.84375 -11.457031 C 4.84375 -16.796875 8.480469 -20.460938 13.75 -20.460938 C 19.019531 -20.460938 22.65625 -16.796875 22.65625 -11.457031 C 22.65625 -6.121094 19.019531 -2.457031 13.75 -2.457031 C 8.480469 -2.457031 4.84375 -6.121094 4.84375 -11.457031 Z M 4.84375 -11.457031 "/></g></g></g><g fill="#130f49" fill-opacity="1"><g transform="translate(224.596853, 207.338592)"><g><path d="M 2.882812 0 L 10.675781 0 L 10.675781 -13.828125 L 15.933594 -6.46875 L 21.039062 -6.46875 L 26.257812 -13.792969 L 26.257812 0 L 34.050781 0 L 34.050781 -27.269531 L 27.660156 -27.269531 L 18.464844 -14.296875 L 9.3125 -27.269531 L 2.882812 -27.269531 Z M 2.882812 0 "/></g></g></g><g fill="#130f49" fill-opacity="1"><g transform="translate(261.515194, 207.338592)"><g><path d="M 2.882812 0 L 22.011719 0 L 22.011719 -6.429688 L 10.675781 -6.429688 L 10.675781 -10.636719 L 20.53125 -10.636719 L 20.53125 -16.945312 L 10.675781 -16.945312 L 10.675781 -20.921875 L 21.582031 -20.921875 L 21.582031 -27.269531 L 2.882812 -27.269531 Z M 2.882812 0 "/></g></g></g><g fill="#130f49" fill-opacity="1"><g transform="translate(285.270659, 207.338592)"><g><path d="M 2.882812 0 L 10.675781 0 L 10.675781 -13.90625 L 21.039062 0 L 27.425781 0 L 27.425781 -27.269531 L 19.671875 -27.269531 L 19.671875 -13.441406 L 9.3125 -27.269531 L 2.882812 -27.269531 Z M 2.882812 0 "/></g></g></g><g fill="#130f49" fill-opacity="1"><g transform="translate(315.607563, 207.338592)"><g><path d="M 0.195312 0 L 8.53125 0 L 10.011719 -3.855469 L 19.324219 -3.855469 L 20.804688 0 L 29.179688 0 L 18.582031 -27.269531 L 10.792969 -27.269531 Z M 11.648438 -9.621094 L 14.6875 -18.078125 L 17.726562 -9.621094 Z M 11.648438 -9.621094 "/></g></g></g></svg>